name D:\school\WTK\thesis\model\3dpredictsim\Results\Batchsim_tmt_linear_v2\Pog_s1_tmt_bCst_d00_k2000_ig24.mot
datacolumns 128
datarows 4
range 1.56827468 1.59964017
endheader
time	pelvis_tilt	pelvis_list	pelvis_rotation	pelvis_tx	pelvis_ty	pelvis_tz	hip_flexion_l	hip_adduction_l	hip_rotation_l	hip_flexion_r	hip_adduction_r	hip_rotation_r	knee_angle_l	knee_angle_r	ankle_angle_l	ankle_angle_r	subtalar_angle_l	subtalar_angle_r	tmt_angle_l	tmt_angle_r	mtp_angle_l	mtp_angle_r	lumbar_extension	lumbar_bending	lumbar_rotation	arm_flex_l	arm_add_l	arm_rot_l	arm_flex_r	arm_add_r	arm_rot_r	elbow_flex_l	elbow_flex_r	pro_sup_l	pro_sup_r	glut_med1_l/activation	glut_med2_l/activation	glut_med3_l/activation	glut_min1_l/activation	glut_min2_l/activation	glut_min3_l/activation	semimem_l/activation	semiten_l/activation	bifemlh_l/activation	bifemsh_l/activation	sar_l/activation	add_long_l/activation	add_brev_l/activation	add_mag1_l/activation	add_mag2_l/activation	add_mag3_l/activation	tfl_l/activation	pect_l/activation	grac_l/activation	glut_max1_l/activation	glut_max2_l/activation	glut_max3_l/activation	iliacus_l/activation	psoas_l/activation	quad_fem_l/activation	gem_l/activation	peri_l/activation	rect_fem_l/activation	vas_med_l/activation	vas_int_l/activation	vas_lat_l/activation	med_gas_l/activation	lat_gas_l/activation	soleus_l/activation	tib_post_l/activation	flex_dig_l/activation	flex_hal_l/activation	tib_ant_l/activation	per_brev_l/activation	per_long_l/activation	per_tert_l/activation	ext_dig_l/activation	ext_hal_l/activation	ercspn_l/activation	intobl_l/activation	extobl_l/activation	glut_med1_r/activation	glut_med2_r/activation	glut_med3_r/activation	glut_min1_r/activation	glut_min2_r/activation	glut_min3_r/activation	semimem_r/activation	semiten_r/activation	bifemlh_r/activation	bifemsh_r/activation	sar_r/activation	add_long_r/activation	add_brev_r/activation	add_mag1_r/activation	add_mag2_r/activation	add_mag3_r/activation	tfl_r/activation	pect_r/activation	grac_r/activation	glut_max1_r/activation	glut_max2_r/activation	glut_max3_r/activation	iliacus_r/activation	psoas_r/activation	quad_fem_r/activation	gem_r/activation	peri_r/activation	rect_fem_r/activation	vas_med_r/activation	vas_int_r/activation	vas_lat_r/activation	med_gas_r/activation	lat_gas_r/activation	soleus_r/activation	tib_post_r/activation	flex_dig_r/activation	flex_hal_r/activation	tib_ant_r/activation	per_brev_r/activation	per_long_r/activation	per_tert_r/activation	ext_dig_r/activation	ext_hal_r/activation	ercspn_r/activation	intobl_r/activation	extobl_r/activation	
          1.56827468	         -2.19320116	         -1.14074510	         -4.42028356	          1.96034335	          0.87430929	          0.00161413	         26.15173786	         -0.58344650	         -2.83375900	        -18.29060530	          1.51503418	          5.60769085	         -9.21405769	         -5.06399126	          5.36180035	         -8.20784901	          5.27808285	          8.05307621	          0.01740565	          0.54004845	         -0.11150748	         26.31335358	         -0.04319650	          3.30442136	          1.42061234	         -8.95731949	        -13.45105934	         11.10258103	          2.84321422	        -13.46729502	          9.26846867	         18.49096474	         24.60097497	         86.51662706	         86.51662706	          0.05000016	          0.06828780	          0.06617924	          0.05000020	          0.05000033	          0.05869558	          0.05487161	          0.05871286	          0.06761818	          0.05000099	          0.05000050	          0.05000019	          0.05000042	          0.09913070	          0.12625161	          0.12317241	          0.05000165	          0.05000085	          0.05001452	          0.05871315	          0.07391381	          0.14187952	          0.05000004	          0.05000005	          0.06977283	          0.05872962	          0.05001525	          0.05107535	          0.05233733	          0.08899436	          0.05000310	          0.05000005	          0.05000015	          0.05000000	          0.05871240	          0.05871303	          0.05871309	          0.43992711	          0.27764377	          0.17787619	          0.14388406	          0.44293654	          0.21514143	          0.05098527	          0.15035055	          0.14634578	          0.30953790	          0.09506405	          0.08095698	          0.27093526	          0.16089298	          0.09506397	          0.05000124	          0.05000020	          0.05000018	          0.05000020	          0.09506589	          0.05000017	          0.05000010	          0.05000019	          0.05000083	          0.05000090	          0.22417928	          0.05000039	          0.05000027	          0.05002349	          0.05000819	          0.05000219	          0.33148905	          0.61612820	          0.05000024	          0.05000536	          0.06894416	          0.24851077	          0.05244375	          0.07046649	          0.05363630	          0.18610649	          0.27010121	          0.20929478	          0.20887540	          0.19816406	          0.26426027	          0.05000003	          0.08598276	          0.15169634	          0.05000026	          0.05000007	          0.05000019	          0.05000000	          0.05000002	          0.05000002	
          1.57872984	         -2.17993002	         -1.20237586	         -4.56849073	          1.97641450	          0.87305184	          0.00149751	         25.66372523	         -0.44738716	         -2.59634574	        -18.14166226	          1.40221324	          5.37111717	         -8.97031343	         -7.06541043	          4.94725313	         -8.85100224	          4.84477617	          9.03877919	          0.01930832	          0.50369781	         -0.08885862	         27.16209857	          0.14475605	          3.13480091	          1.47381001	        -10.00732842	        -13.44970954	         10.94792463	          2.64646913	        -13.49174476	          9.50519279	         18.52322566	         25.35849676	         86.51662706	         86.51662706	          0.05871224	          0.05815448	          0.25204597	          0.05871300	          0.05871280	          0.05000223	          0.05000238	          0.05000028	          0.05871263	          0.05000016	          0.05000229	          0.09506396	          0.13499203	          0.15089479	          0.16767454	          0.14746382	          0.05000013	          0.08095532	          0.05000071	          0.05000051	          0.06294544	          0.17523786	          0.05871291	          0.05182861	          0.05941895	          0.05001463	          0.10528142	          0.06770163	          0.22887953	          0.23100113	          0.19905942	          0.05000004	          0.05000007	          0.05142013	          0.05000001	          0.05000041	          0.05000050	          0.58481778	          0.27460250	          0.15148044	          0.49551417	          0.53960570	          0.32893574	          0.05000011	          0.12803935	          0.12462886	          0.26360425	          0.08095708	          0.06894343	          0.23073004	          0.13701738	          0.08095703	          0.05000050	          0.05000011	          0.05000010	          0.05000019	          0.08095898	          0.12414026	          0.12007705	          0.05413298	          0.05000290	          0.05000033	          0.19091236	          0.11048353	          0.05134355	          0.05000101	          0.05000062	          0.05000071	          0.28229794	          0.53833689	          0.06344871	          0.05000057	          0.05871329	          0.21163314	          0.12086276	          0.12003150	          0.09282562	          0.15848931	          0.23001969	          0.18695494	          0.17787977	          0.16875836	          0.22504582	          0.05000001	          0.07322348	          0.13870953	          0.05000010	          0.05000002	          0.05000010	          0.05000005	          0.05000015	          0.06125999	
          1.58918501	         -2.15993055	         -1.24672309	         -4.69265946	          1.99276629	          0.87169511	          0.00137738	         25.07177965	         -0.31498545	         -2.32336321	        -17.88234231	          1.27892311	          5.12389111	         -9.29415069	         -9.28444002	          4.29265121	         -9.49533020	          4.40517761	         10.01576184	          0.00952796	          0.44979312	         -0.04109211	         27.67928774	          0.35329817	          2.93221610	          1.52147819	        -11.07136758	        -13.45473407	         10.81003549	          2.38194412	        -13.52361683	          9.72181063	         18.55865375	         26.10835747	         86.51662706	         86.51662706	          0.05000006	          0.05000037	          0.21464378	          0.05000035	          0.05000022	          0.05000031	          0.05000002	          0.05000011	          0.05000006	          0.05000004	          0.05000013	          0.08095705	          0.11496000	          0.19792589	          0.21236412	          0.15153609	          0.05871289	          0.06894229	          0.05000733	          0.10843521	          0.10846720	          0.14923364	          0.05000027	          0.05000024	          0.13982334	          0.05000058	          0.08965827	          0.06894347	          0.25721763	          0.27274648	          0.21293958	          0.05000010	          0.05000025	          0.05000001	          0.05569335	          0.05871165	          0.05000264	          0.49803401	          0.31925863	          0.17072699	          0.42198272	          0.45953122	          0.28012350	          0.05000000	          0.10903901	          0.10613462	          0.22448685	          0.06894351	          0.05871265	          0.19649105	          0.11668478	          0.06894348	          0.05000396	          0.05000029	          0.05000066	          0.05000006	          0.06894524	          0.17962150	          0.28019869	          0.06894715	          0.05871273	          0.09191382	          0.16258205	          0.09408862	          0.05000081	          0.05871102	          0.05871238	          0.05871270	          0.24040648	          0.47154546	          0.05871263	          0.05871265	          0.05000115	          0.18022794	          0.12958805	          0.13114845	          0.12646183	          0.13497036	          0.19588603	          0.15921185	          0.15148341	          0.14371570	          0.19165034	          0.05000004	          0.06235756	          0.12934564	          0.05000007	          0.05000018	          0.05000020	          0.05000007	          0.06894350	          0.07248833	
          1.59964017	         -2.13528084	         -1.27317886	         -4.79251790	          2.00925507	          0.87021068	          0.00126430	         24.34655870	         -0.20811409	         -2.03486508	        -17.52374807	          1.14894016	          4.86972483	         -9.92206080	        -11.68554651	          3.80424044	        -10.07698905	          3.94109966	         10.94924938	         -0.00341436	          0.37246402	         -0.17820051	         27.67966593	          0.56860564	          2.69964358	          1.56019443	        -12.11878902	        -13.47132850	         10.72677833	          2.07279777	        -13.56102104	          9.91741868	         18.57352825	         26.85086419	         86.51662706	         86.51662706	          0.22638417	          0.23555934	          0.36582204	          0.25936893	          0.19677264	          0.21095984	          0.06894473	          0.07679744	          0.07426151	          0.06894975	          0.05871317	          0.06894349	          0.09790058	          0.16855483	          0.18085056	          0.14633435	          0.05000042	          0.05871195	          0.05000044	          0.18305942	          0.15266169	          0.13147280	          0.05000088	          0.05000041	          0.11907438	          0.05871684	          0.20720699	          0.05871264	          0.21904797	          0.23227242	          0.18134054	          0.05000029	          0.05000042	          0.05000015	          0.05000001	          0.05000166	          0.05000072	          0.57786591	          0.27188249	          0.14539207	          0.65460757	          0.55837316	          0.34217203	          0.05000002	          0.09285822	          0.09038482	          0.23737293	          0.05871268	          0.05000003	          0.20196269	          0.09936943	          0.05871267	          0.05000321	          0.05000020	          0.05000013	          0.05000036	          0.05871604	          0.17773650	          0.26604678	          0.05871602	          0.05000206	          0.07827450	          0.13845583	          0.09041615	          0.05000059	          0.05000045	          0.05000036	          0.05000044	          0.20473150	          0.43478572	          0.05000005	          0.05000017	          0.05000005	          0.15348310	          0.11035792	          0.11168677	          0.10769561	          0.11494149	          0.16681762	          0.13558568	          0.12900413	          0.12238917	          0.16321055	          0.05688451	          0.13116355	          0.11757404	          0.09250985	          0.16636681	          0.05000251	          0.06460128	          0.05871267	          0.06173147	
